<?xml version="1.0" encoding="utf-8"?>
<!-- Generator: Adobe Illustrator 17.0.2, SVG Export Plug-In . SVG Version: 6.00 Build 0)  -->
<!DOCTYPE svg PUBLIC "-//W3C//DTD SVG 1.0//EN" "http://www.w3.org/TR/2001/REC-SVG-20010904/DTD/svg10.dtd">
<svg version="1.0" id="Layer_1" xmlns="http://www.w3.org/2000/svg" xmlns:xlink="http://www.w3.org/1999/xlink" x="0px" y="0px"
	 width="105px" height="55px" viewBox="0 0 105 55" enable-background="new 0 0 105 55" xml:space="preserve">
<g>
	<path d="M5.063,42.964c-1.449,0-2.839-0.333-4.169-0.998v-4.098c1.235,0.927,2.625,1.39,4.169,1.39
		c1.377,0,2.066-0.368,2.066-1.105c0-0.522-0.404-0.986-1.211-1.39c-0.356-0.19-0.986-0.534-1.888-1.033
		c-2.067-1.212-3.1-2.744-3.1-4.597c0-1.448,0.487-2.565,1.461-3.349c0.902-0.712,2.054-1.069,3.456-1.069
		c1.52,0,2.922,0.333,4.204,0.998v3.064c-1.378-0.642-2.72-0.962-4.026-0.962c-0.926,0-1.389,0.333-1.389,0.998
		c0,0.452,0.32,0.855,0.962,1.211c0.878,0.452,1.626,0.855,2.245,1.211c2.185,1.259,3.278,2.827,3.278,4.703
		c0,1.734-0.63,3.041-1.889,3.92C8.163,42.596,6.774,42.964,5.063,42.964z"/>
	<path d="M14.719,50.66l2.351-7.981c-0.095-0.332-0.261-0.938-0.498-1.817l-3.92-14.002h4.098c0.095,0.356,0.273,1.081,0.534,2.173
		l1.781,7.554l1.817-7.446c0.119-0.546,0.273-1.306,0.463-2.28l4.133,0.036l-5.915,21.2c-0.309,1.092-0.511,1.947-0.606,2.565
		H14.719z"/>
	<path d="M34.884,26.716c1.924-0.023,3.408,0.808,4.454,2.494c0.878,1.425,1.318,3.195,1.318,5.309v4.881
		c0,1.616,0.047,2.708,0.143,3.278h-4.276c0.071-0.546,0.119-1.662,0.142-3.349l0.036-4.81c0.023-2.684-0.831-4.026-2.565-4.026
		c-0.784,0-1.592,0.392-2.423,1.176v8.765c0,0.404,0.018,0.861,0.054,1.372c0.036,0.511,0.053,0.802,0.053,0.873h-4.133
		c0.071-0.404,0.107-1.152,0.107-2.245V29.496c0-1.377-0.036-2.256-0.107-2.636h3.919v1.283
		C32.675,27.192,33.768,26.716,34.884,26.716z"/>
	<path d="M49.849,42.928c-2.28,0-3.99-0.795-5.131-2.387c-0.974-1.401-1.461-3.301-1.461-5.701c0-5.368,2.197-8.053,6.592-8.053
		c4.347,0,6.52,2.685,6.52,8.053c0,2.375-0.487,4.264-1.461,5.665C53.792,42.121,52.105,42.928,49.849,42.928z M49.813,30.28
		c-1.093,0-1.817,0.523-2.173,1.568c-0.214,0.594-0.321,1.592-0.321,2.993c0,1.402,0.107,2.399,0.321,2.993
		c0.356,1.045,1.081,1.568,2.173,1.568c1.092,0,1.817-0.511,2.173-1.532c0.214-0.593,0.32-1.603,0.32-3.028
		c0-1.401-0.107-2.399-0.32-2.993C51.63,30.802,50.906,30.28,49.813,30.28z"/>
	<path d="M70.478,29.496c0.974,1.568,1.461,3.409,1.461,5.523c0,1.995-0.523,3.765-1.568,5.309
		c-1.117,1.687-2.518,2.529-4.204,2.529c-1.211,0-2.28-0.297-3.207-0.89v6.306c0,1.354,0.023,2.233,0.072,2.637h-4.062
		c0.047-0.38,0.071-1.259,0.071-2.637V29.104c0-1.092-0.024-1.84-0.071-2.245h3.777v1.283c0.855-0.95,1.912-1.425,3.171-1.425
		C67.841,26.716,69.361,27.643,70.478,29.496z M67.236,37.797c0.428-0.831,0.641-1.758,0.641-2.779c0-1.14-0.178-2.114-0.534-2.922
		c-0.475-1.069-1.176-1.603-2.102-1.603c-0.713,0-1.473,0.404-2.281,1.211v6.449c0.808,0.76,1.568,1.14,2.281,1.14
		C66.072,39.294,66.737,38.795,67.236,37.797z"/>
	<path d="M76.891,42.928c-0.76,0-1.407-0.267-1.942-0.801c-0.534-0.534-0.801-1.181-0.801-1.942c0-0.76,0.261-1.401,0.784-1.924
		c0.522-0.522,1.176-0.784,1.959-0.784c0.736,0,1.372,0.267,1.906,0.801c0.534,0.534,0.801,1.17,0.801,1.906
		c0,0.76-0.261,1.407-0.784,1.942C78.292,42.661,77.651,42.928,76.891,42.928z"/>
	<path d="M86.404,42.964c-1.449,0-2.839-0.333-4.169-0.998v-4.098c1.235,0.927,2.625,1.39,4.169,1.39
		c1.377,0,2.066-0.368,2.066-1.105c0-0.522-0.404-0.986-1.211-1.39c-0.356-0.19-0.986-0.534-1.888-1.033
		c-2.067-1.212-3.1-2.744-3.1-4.597c0-1.448,0.487-2.565,1.461-3.349c0.902-0.712,2.054-1.069,3.456-1.069
		c1.52,0,2.922,0.333,4.204,0.998v3.064c-1.378-0.642-2.72-0.962-4.026-0.962c-0.926,0-1.389,0.333-1.389,0.998
		c0,0.452,0.32,0.855,0.962,1.211c0.878,0.452,1.626,0.855,2.245,1.211c2.185,1.259,3.278,2.827,3.278,4.703
		c0,1.734-0.63,3.041-1.889,3.92C89.503,42.596,88.114,42.964,86.404,42.964z"/>
	<path d="M96.771,24.08c-0.689,0-1.277-0.261-1.764-0.784c-0.487-0.522-0.73-1.14-0.73-1.853c0-0.736,0.243-1.365,0.73-1.889
		c0.487-0.522,1.075-0.784,1.764-0.784c0.665,0,1.241,0.262,1.728,0.784c0.486,0.523,0.73,1.153,0.73,1.889
		c0,0.712-0.244,1.33-0.73,1.853C98.013,23.819,97.436,24.08,96.771,24.08z M94.741,42.679c0.047-0.475,0.071-1.283,0.071-2.423
		V29.175c0-1.116-0.024-1.889-0.071-2.316h4.026c-0.048,0.452-0.071,1.2-0.071,2.245v10.938c0,1.211,0.023,2.091,0.071,2.637H94.741
		z"/>
</g>
</svg>
