<svg version="1" xmlns="http://www.w3.org/2000/svg" width="105" height="55" viewBox="0 0 105 55"><path d="M5.063 42.964c-1.449 0-2.839-.333-4.169-.998v-4.098c1.235.927 2.625 1.39 4.169 1.39 1.377 0 2.066-.368 2.066-1.105 0-.522-.404-.986-1.211-1.39-.356-.19-.986-.534-1.888-1.033-2.067-1.212-3.1-2.744-3.1-4.597 0-1.448.487-2.565 1.461-3.349.902-.712 2.054-1.069 3.456-1.069 1.52 0 2.922.333 4.204.998v3.064c-1.378-.642-2.72-.962-4.026-.962-.926 0-1.389.333-1.389.998 0 .452.32.855.962 1.211.878.452 1.626.855 2.245 1.211 2.185 1.259 3.278 2.827 3.278 4.703 0 1.734-.63 3.041-1.889 3.92-1.069.738-2.458 1.106-4.169 1.106zM14.719 50.66l2.351-7.981c-.095-.332-.261-.938-.498-1.817l-3.92-14.002h4.098c.095.356.273 1.081.534 2.173l1.781 7.554 1.817-7.446c.119-.546.273-1.306.463-2.28l4.133.036-5.915 21.2c-.309 1.092-.511 1.947-.606 2.565h-4.238zM34.884 26.716c1.924-.023 3.408.808 4.454 2.494.878 1.425 1.318 3.195 1.318 5.309v4.881c0 1.616.047 2.708.143 3.278h-4.276c.071-.546.119-1.662.142-3.349l.036-4.81c.023-2.684-.831-4.026-2.565-4.026-.784 0-1.592.392-2.423 1.176v8.765c0 .404.018.861.054 1.372.036.511.053.802.053.873h-4.133c.071-.404.107-1.152.107-2.245v-10.938c0-1.377-.036-2.256-.107-2.636h3.919v1.283c1.069-.951 2.162-1.427 3.278-1.427zM49.849 42.928c-2.28 0-3.99-.795-5.131-2.387-.974-1.401-1.461-3.301-1.461-5.701 0-5.368 2.197-8.053 6.592-8.053 4.347 0 6.52 2.685 6.52 8.053 0 2.375-.487 4.264-1.461 5.665-1.116 1.616-2.803 2.423-5.059 2.423zm-.036-12.648c-1.093 0-1.817.523-2.173 1.568-.214.594-.321 1.592-.321 2.993 0 1.402.107 2.399.321 2.993.356 1.045 1.081 1.568 2.173 1.568s1.817-.511 2.173-1.532c.214-.593.32-1.603.32-3.028 0-1.401-.107-2.399-.32-2.993-.356-1.047-1.08-1.569-2.173-1.569zM70.478 29.496c.974 1.568 1.461 3.409 1.461 5.523 0 1.995-.523 3.765-1.568 5.309-1.117 1.687-2.518 2.529-4.204 2.529-1.211 0-2.28-.297-3.207-.89v6.306c0 1.354.023 2.233.072 2.637h-4.062c.047-.38.071-1.259.071-2.637v-19.169c0-1.092-.024-1.84-.071-2.245h3.777v1.283c.855-.95 1.912-1.425 3.171-1.425 1.923-.001 3.443.926 4.56 2.779zm-3.242 8.301c.428-.831.641-1.758.641-2.779 0-1.14-.178-2.114-.534-2.922-.475-1.069-1.176-1.603-2.102-1.603-.713 0-1.473.404-2.281 1.211v6.449c.808.76 1.568 1.14 2.281 1.14.831.001 1.496-.498 1.995-1.496zM76.891 42.928c-.76 0-1.407-.267-1.942-.801-.534-.534-.801-1.181-.801-1.942 0-.76.261-1.401.784-1.924.522-.522 1.176-.784 1.959-.784.736 0 1.372.267 1.906.801.534.534.801 1.17.801 1.906 0 .76-.261 1.407-.784 1.942-.522.535-1.163.802-1.923.802zM86.404 42.964c-1.449 0-2.839-.333-4.169-.998v-4.098c1.235.927 2.625 1.39 4.169 1.39 1.377 0 2.066-.368 2.066-1.105 0-.522-.404-.986-1.211-1.39-.356-.19-.986-.534-1.888-1.033-2.067-1.212-3.1-2.744-3.1-4.597 0-1.448.487-2.565 1.461-3.349.902-.712 2.054-1.069 3.456-1.069 1.52 0 2.922.333 4.204.998v3.064c-1.378-.642-2.72-.962-4.026-.962-.926 0-1.389.333-1.389.998 0 .452.32.855.962 1.211.878.452 1.626.855 2.245 1.211 2.185 1.259 3.278 2.827 3.278 4.703 0 1.734-.63 3.041-1.889 3.92-1.07.738-2.459 1.106-4.169 1.106zM96.771 24.08c-.689 0-1.277-.261-1.764-.784-.487-.522-.73-1.14-.73-1.853 0-.736.243-1.365.73-1.889.487-.522 1.075-.784 1.764-.784.665 0 1.241.262 1.728.784.486.523.73 1.153.73 1.889 0 .712-.244 1.33-.73 1.853-.486.523-1.063.784-1.728.784zm-2.03 18.599c.047-.475.071-1.283.071-2.423v-11.081c0-1.116-.024-1.889-.071-2.316h4.026c-.048.452-.071 1.2-.071 2.245v10.938c0 1.211.023 2.091.071 2.637h-4.026z"/></svg>