<?xml version="1.0" encoding="utf-8"?>
<!-- Generator: Adobe Illustrator 17.0.2, SVG Export Plug-In . SVG Version: 6.00 Build 0)  -->
<!DOCTYPE svg PUBLIC "-//W3C//DTD SVG 1.0//EN" "http://www.w3.org/TR/2001/REC-SVG-20010904/DTD/svg10.dtd">
<svg version="1.0" id="Layer_1" xmlns="http://www.w3.org/2000/svg" xmlns:xlink="http://www.w3.org/1999/xlink" x="0px" y="0px"
	 width="210px" height="128px" viewBox="0 0 210 128" enable-background="new 0 0 210 128" xml:space="preserve">
<path d="M10.116,85.928c-2.898,0-5.678-0.666-8.338-1.996v-8.196c2.47,1.854,5.25,2.78,8.338,2.78c2.754,0,4.132-0.736,4.132-2.21
	c0-1.044-0.808-1.972-2.422-2.78c-0.712-0.38-1.972-1.068-3.776-2.066c-4.134-2.424-6.2-5.488-6.2-9.194
	c0-2.896,0.974-5.13,2.922-6.698c1.804-1.424,4.108-2.138,6.912-2.138c3.04,0,5.844,0.666,8.408,1.996v6.128
	c-2.756-1.284-5.44-1.924-8.052-1.924c-1.852,0-2.778,0.666-2.778,1.996c0,0.904,0.64,1.71,1.924,2.422
	c1.756,0.904,3.252,1.71,4.49,2.422c4.37,2.518,6.556,5.654,6.556,9.406c0,3.468-1.26,6.082-3.778,7.84
	C16.316,85.192,13.538,85.928,10.116,85.928z M29.428,101.32l4.702-15.962c-0.19-0.664-0.522-1.876-0.996-3.634l-7.84-28.004h8.196
	c0.19,0.712,0.546,2.162,1.068,4.346l3.562,15.108l3.634-14.892c0.238-1.092,0.546-2.612,0.926-4.56l8.266,0.072l-11.83,42.4
	c-0.618,2.184-1.022,3.894-1.212,5.13h-8.476L29.428,101.32z M69.758,53.432c3.848-0.046,6.816,1.616,8.908,4.988
	c1.756,2.85,2.636,6.39,2.636,10.618V78.8c0,3.232,0.094,5.416,0.286,6.556h-8.552c0.142-1.092,0.238-3.324,0.284-6.698l0.072-9.62
	c0.046-5.368-1.662-8.052-5.13-8.052c-1.568,0-3.184,0.784-4.846,2.352v17.53c0,0.808,0.036,1.722,0.108,2.744
	c0.072,1.022,0.106,1.604,0.106,1.746h-8.266c0.142-0.808,0.214-2.304,0.214-4.49V58.992c0-2.754-0.072-4.512-0.214-5.272h7.838
	v2.566C65.34,54.384,67.526,53.432,69.758,53.432z M99.688,85.856c-4.56,0-7.98-1.59-10.262-4.774
	c-1.948-2.802-2.922-6.602-2.922-11.402c0-10.736,4.394-16.106,13.184-16.106c8.694,0,13.04,5.37,13.04,16.106
	c0,4.75-0.974,8.528-2.922,11.33C107.574,84.242,104.2,85.856,99.688,85.856z M99.616,60.56c-2.186,0-3.634,1.046-4.346,3.136
	c-0.428,1.188-0.642,3.184-0.642,5.986c0,2.804,0.214,4.798,0.642,5.986c0.712,2.09,2.162,3.136,4.346,3.136
	s3.634-1.022,4.346-3.064c0.428-1.186,0.64-3.206,0.64-6.056c0-2.802-0.214-4.798-0.64-5.986
	C103.25,61.604,101.802,60.56,99.616,60.56z M140.946,58.992c1.948,3.136,2.922,6.818,2.922,11.046c0,3.99-1.046,7.53-3.136,10.618
	c-2.234,3.374-5.036,5.058-8.408,5.058c-2.422,0-4.56-0.594-6.414-1.78v12.612c0,2.708,0.046,4.466,0.144,5.274h-8.124
	c0.094-0.76,0.142-2.518,0.142-5.274V58.208c0-2.184-0.048-3.68-0.142-4.49h7.554v2.566c1.71-1.9,3.824-2.85,6.342-2.85
	C135.672,53.432,138.712,55.286,140.946,58.992z M134.462,75.594c0.856-1.662,1.282-3.516,1.282-5.558
	c0-2.28-0.356-4.228-1.068-5.844c-0.95-2.138-2.352-3.206-4.204-3.206c-1.426,0-2.946,0.808-4.562,2.422v12.898
	c1.616,1.52,3.136,2.28,4.562,2.28C132.134,78.588,133.464,77.59,134.462,75.594z M153.772,85.856c-1.52,0-2.814-0.534-3.884-1.602
	c-1.068-1.068-1.602-2.362-1.602-3.884c0-1.52,0.522-2.802,1.568-3.848c1.044-1.044,2.352-1.568,3.918-1.568
	c1.472,0,2.744,0.534,3.812,1.602s1.602,2.34,1.602,3.812c0,1.52-0.522,2.814-1.568,3.884
	C156.574,85.322,155.292,85.856,153.772,85.856z M172.798,85.928c-2.898,0-5.678-0.666-8.338-1.996v-8.196
	c2.47,1.854,5.25,2.78,8.338,2.78c2.754,0,4.132-0.736,4.132-2.21c0-1.044-0.808-1.972-2.422-2.78
	c-0.712-0.38-1.972-1.068-3.776-2.066c-4.134-2.424-6.2-5.488-6.2-9.194c0-2.896,0.974-5.13,2.922-6.698
	c1.804-1.424,4.108-2.138,6.912-2.138c3.04,0,5.844,0.666,8.408,1.996v6.128c-2.756-1.284-5.44-1.924-8.052-1.924
	c-1.852,0-2.778,0.666-2.778,1.996c0,0.904,0.64,1.71,1.924,2.422c1.756,0.904,3.252,1.71,4.49,2.422
	c4.37,2.518,6.556,5.654,6.556,9.406c0,3.468-1.26,6.082-3.778,7.84C178.996,85.192,176.218,85.928,172.798,85.928z M193.532,48.16
	c-1.378,0-2.554-0.522-3.528-1.568c-0.974-1.044-1.46-2.28-1.46-3.706c0-1.472,0.486-2.73,1.46-3.778
	c0.974-1.044,2.15-1.568,3.528-1.568c1.33,0,2.482,0.524,3.456,1.568c0.972,1.046,1.46,2.306,1.46,3.778
	c0,1.424-0.488,2.66-1.46,3.706C196.016,47.638,194.862,48.16,193.532,48.16z M189.472,85.358c0.094-0.95,0.142-2.566,0.142-4.846
	V58.35c0-2.232-0.048-3.778-0.142-4.632h8.052c-0.096,0.904-0.142,2.4-0.142,4.49v21.876c0,2.422,0.046,4.182,0.142,5.274H189.472z"
	/>
</svg>
