<?xml version="1.0" encoding="utf-8"?>
<!-- Generator: Adobe Illustrator 17.0.2, SVG Export Plug-In . SVG Version: 6.00 Build 0)  -->
<!DOCTYPE svg PUBLIC "-//W3C//DTD SVG 1.0//EN" "http://www.w3.org/TR/2001/REC-SVG-20010904/DTD/svg10.dtd">
<svg version="1.0" id="Layer_1" xmlns="http://www.w3.org/2000/svg" xmlns:xlink="http://www.w3.org/1999/xlink" x="0px" y="0px"
	 width="29px" height="29px" viewBox="0 0 29 29" enable-background="new 0 0 29 29" xml:space="preserve">
<g>
	<path fill="#CCCCCC" d="M7.447,9.818C7.079,9.62,6.732,9,7.407,9h12.738c0.675,0,0.328,0.62-0.041,0.817
		c-0.367,0.198-5.457,2.932-5.647,3.033c-0.189,0.102-0.434,0.151-0.682,0.151c-0.247,0-0.492-0.049-0.681-0.151
		C12.905,12.749,7.815,10.016,7.447,9.818L7.447,9.818z M20.552,11.489c0,0.139,0,5.522,0,5.522c0,0.315-0.419,0.722-0.746,0.722
		H7.747C7.421,17.733,7,17.327,7,17.011c0,0,0-5.384,0-5.522s-0.002-0.318,0.292-0.165c0.417,0.218,5.546,2.899,5.802,3.033
		s0.434,0.151,0.681,0.151c0.248,0,0.426-0.017,0.682-0.151c0.256-0.134,5.385-2.815,5.802-3.033
		C20.555,11.17,20.552,11.35,20.552,11.489z"/>
</g>
</svg>
