<svg version="1" xmlns="http://www.w3.org/2000/svg" width="29" height="29" viewBox="0 0 29 29"><path fill="#ccc" d="M7.447 9.818c-.368-.198-.715-.818-.04-.818h12.738c.675 0 .328.62-.041.817-.367.198-5.457 2.932-5.647 3.033-.189.102-.434.151-.682.151-.247 0-.492-.049-.681-.151l-5.647-3.032zm13.105 1.671v5.522c0 .315-.419.722-.746.722h-12.059c-.326 0-.747-.406-.747-.722v-5.522s-.002-.318.292-.165l5.802 3.033s.434.151.681.151c.248 0 .426-.017.682-.151l5.802-3.033c.296-.154.293.026.293.165z"/></svg>