<?xml version="1.0" encoding="utf-8"?>
<!-- Generator: Adobe Illustrator 17.0.2, SVG Export Plug-In . SVG Version: 6.00 Build 0)  -->
<!DOCTYPE svg PUBLIC "-//W3C//DTD SVG 1.0//EN" "http://www.w3.org/TR/2001/REC-SVG-20010904/DTD/svg10.dtd">
<svg version="1.0" id="Layer_1" xmlns="http://www.w3.org/2000/svg" xmlns:xlink="http://www.w3.org/1999/xlink" x="0px" y="0px"
	 width="29px" height="29px" viewBox="0 0 29 29" enable-background="new 0 0 29 29" xml:space="preserve">
<g>
	<path fill="#CCCCCC" d="M15.623,12.563h3.75V9.75h-3.75l0-3.75h-2.418c-0.096,0.774-0.271,1.412-0.525,1.912
		c-0.254,0.502-0.591,0.93-1.012,1.288C11.248,9.557,10.589,9.832,10,10.023v2.124h2.013v5.26c0,0.686,0.072,1.21,0.216,1.571
		c0.144,0.361,0.401,0.702,0.774,1.023c0.371,0.318,0.821,0.566,1.348,0.74C14.877,20.914,15.282,21,15.968,21
		c0.604,0,1.166-0.061,1.686-0.182c0.519-0.122,1.078-0.298,1.719-0.599v-2.255c-0.751,0.494-1.2,0.594-1.959,0.594
		c-0.427,0-0.806-0.099-1.138-0.298c-0.25-0.147-0.48-0.402-0.571-0.647c-0.092-0.247-0.081-0.748-0.081-1.619L15.623,12.563
		L15.623,12.563z"/>
</g>
</svg>
