<svg version="1" xmlns="http://www.w3.org/2000/svg" width="29" height="29" viewBox="0 0 29 29"><path fill="#ccc" d="M15.623 12.563h3.75v-2.813h-3.75v-3.75h-2.418c-.096.774-.271 1.412-.525 1.912-.254.502-.591.93-1.012 1.288-.42.357-1.079.632-1.668.823v2.124h2.013v5.26c0 .686.072 1.21.216 1.571.144.361.401.702.774 1.023.371.318.821.566 1.348.74.526.173.931.259 1.617.259.604 0 1.166-.061 1.686-.182.519-.122 1.078-.298 1.719-.599v-2.255c-.751.494-1.2.594-1.959.594-.427 0-.806-.099-1.138-.298-.25-.147-.48-.402-.571-.647-.092-.247-.081-.748-.081-1.619l-.001-3.431z"/></svg>