<?xml version="1.0" encoding="utf-8"?>
<!-- Generator: Adobe Illustrator 17.0.2, SVG Export Plug-In . SVG Version: 6.00 Build 0)  -->
<!DOCTYPE svg PUBLIC "-//W3C//DTD SVG 1.0//EN" "http://www.w3.org/TR/2001/REC-SVG-20010904/DTD/svg10.dtd">
<svg version="1.0" id="Layer_1" xmlns="http://www.w3.org/2000/svg" xmlns:xlink="http://www.w3.org/1999/xlink" x="0px" y="0px"
	 width="29px" height="29px" viewBox="0 0 29 29" enable-background="new 0 0 29 29" xml:space="preserve">
<g>
	<path fill="#CCCCCC" d="M21.436,9.485c-0.425,0.635-0.961,1.193-1.58,1.639c0.006,0.136,0.009,0.272,0.009,0.41
		c0,4.185-3.185,9.011-9.011,9.011c-1.788,0-3.453-0.524-4.855-1.423c0.248,0.029,0.5,0.044,0.755,0.044
		c1.484,0,2.849-0.506,3.933-1.356c-1.386-0.025-2.555-0.941-2.958-2.199c0.193,0.037,0.392,0.057,0.596,0.057
		c0.289,0,0.569-0.039,0.834-0.111c-1.449-0.291-2.54-1.571-2.54-3.105c0-0.013,0-0.027,0-0.04c0.427,0.237,0.915,0.38,1.434,0.396
		c-0.85-0.568-1.409-1.537-1.409-2.636c0-0.58,0.156-1.124,0.429-1.592c1.562,1.916,3.896,3.177,6.528,3.309
		c-0.054-0.232-0.082-0.474-0.082-0.722C13.52,9.418,14.938,8,16.687,8c0.911,0,1.734,0.385,2.312,1
		c0.721-0.142,1.399-0.406,2.011-0.769c-0.236,0.74-0.739,1.36-1.392,1.752C20.258,9.907,20.869,9.737,21.436,9.485L21.436,9.485z"
		/>
</g>
</svg>
