<svg version="1" xmlns="http://www.w3.org/2000/svg" width="29" height="29" viewBox="0 0 29 29"><path fill="#ccc" d="M21.436 9.485c-.425.635-.961 1.193-1.58 1.639l.009.41c0 4.185-3.185 9.011-9.011 9.011-1.788 0-3.453-.524-4.855-1.423.248.029.5.044.755.044 1.484 0 2.849-.506 3.933-1.356-1.386-.025-2.555-.941-2.958-2.199.193.037.392.057.596.057.289 0 .569-.039.834-.111-1.449-.291-2.54-1.571-2.54-3.105v-.04c.427.237.915.38 1.434.396-.85-.568-1.409-1.537-1.409-2.636 0-.58.156-1.124.429-1.592 1.562 1.916 3.896 3.177 6.528 3.309-.054-.232-.082-.474-.082-.722.001-1.749 1.419-3.167 3.168-3.167.911 0 1.734.385 2.312 1 .721-.142 1.399-.406 2.011-.769-.236.74-.739 1.36-1.392 1.752.64-.076 1.251-.246 1.818-.498z"/></svg>