<?xml version="1.0" standalone="no"?>
<!DOCTYPE svg PUBLIC "-//W3C//DTD SVG 1.1//EN" "http://www.w3.org/Graphics/SVG/1.1/DTD/svg11.dtd" >
<svg xmlns="http://www.w3.org/2000/svg">
<metadata>
<json>
{
	"fontFamily": "spocdicons",
	"version": "Version 1.0",
	"majorVersion": 0,
	"fontId": "spocdicons",
	"psName": "spocdicons",
	"subFamily": "Regular",
	"fullName": "spocdicons",
	"description": "Generated by IcoMoon"
}
</json>
</metadata>
<defs>
<font id="spocdicons" horiz-adv-x="2048">
<font-face units-per-em="2048" ascent="1536" descent="-512" />
<missing-glyph horiz-adv-x="2048" />
<glyph unicode="&#x20;" d="" horiz-adv-x="1024" />
<glyph unicode="&#xf020;" d="M291.918-9.63c-85.992 0-182.56 20.418-289.654 61.098v289.654c113.146-60.31 209.662-90.518 289.654-90.518 70.888 0 131.25 13.578 181.034 40.732 61.836 33.154 92.78 80.676 92.78 142.564 0 43.732-3.79 76.15-11.314 97.306-13.578 34.68-40.732 64.836-81.466 90.518s-114.672 73.204-221.766 142.564c-90.518 58.836-154.984 118.408-193.454 178.772s-57.73 133.566-57.73 219.556c0 248.922 147.090 373.382 441.27 373.382 104.094 0 206.662-23.418 307.758-70.15v-262.5c-95.042 60.31-196.138 90.518-303.232 90.518-110.146 0-165.194-40.732-165.194-122.198 0-61.888 36.206-115.41 108.62-160.668 67.888-43.784 134.986-86.728 201.4-128.986 98.042-63.362 167.456-130.512 208.19-201.452 37.68-64.836 56.574-142.564 56.574-233.082 0-158.404-57.31-277.604-171.982-357.542-98.042-66.362-228.556-99.568-391.486-99.568zM1746.978 848.070c61.836-99.568 92.78-216.504 92.78-350.754 0-126.724-33.208-239.134-99.568-337.176-70.94-107.146-159.93-160.668-267.026-160.668-76.94 0-144.828 18.788-203.664 56.52v-400.486c0-85.992 1.474-141.774 4.526-167.51h-257.974c3 24.156 4.526 80.044 4.526 167.51v1217.454c0 69.362-1.526 116.882-4.526 142.564h239.87v-81.466c54.31 60.31 121.408 90.518 201.4 90.518 122.198 0 218.766-58.836 289.654-176.508zM1541.052 320.81c27.156 52.784 40.732 111.62 40.732 176.508 0 72.414-11.314 134.25-33.944 185.508-30.208 67.94-74.676 101.884-133.512 101.884-45.258 0-93.57-25.682-144.828-76.94v-409.59c51.31-48.31 99.568-72.414 144.828-72.414 52.784 0 95.042 31.68 126.724 95.042zM2382.86-5.052c-144.828 0-253.448 50.522-325.862 151.616-61.888 88.938-92.78 209.662-92.78 362.068 0 340.912 139.512 511.422 418.642 511.422 276.076 0 414.116-170.508 414.116-511.422 0-150.88-30.944-270.814-92.78-359.806-70.94-102.622-178.034-153.878-321.336-153.878zM2380.598 798.286c-69.414 0-115.41-33.208-138.038-99.622-13.578-37.732-20.366-101.094-20.366-190.034 0-89.044 6.788-152.406 20.366-190.086 22.63-66.414 68.624-99.568 138.038-99.568 69.362 0 115.41 32.418 138.038 97.306 13.578 37.68 20.366 101.884 20.366 192.348 0 88.938-6.788 152.352-20.366 190.034-22.63 66.414-68.678 99.622-138.038 99.622zM3349.076-5.052c-131.25 0-236.87 49.732-316.81 149.354-76.94 95.042-115.41 213.452-115.41 355.28 0 141.774 36.944 262.5 110.884 362.068 79.94 107.094 186.296 160.668 319.072 160.668 75.414 0 153.090-21.892 233.082-65.624v-239.87c-60.362 54.31-122.988 81.466-187.822 81.466-69.414 0-124.46-30.208-165.194-90.518-34.734-52.836-52.048-116.988-52.048-192.348 0-73.94 18.104-137.302 54.31-190.086 40.732-58.836 95.042-88.254 162.93-88.254 72.414 0 144.828 30.154 217.24 90.518v-262.446c-88.99-46.838-175.772-70.204-260.236-70.204zM3822.028 178.244c-61.888 99.622-92.78 216.452-92.78 350.754 0 126.724 32.418 238.344 97.306 334.912 72.414 105.568 162.142 158.404 269.288 158.404 75.414 0 143.302-18.892 203.664-56.574v384.698c0 85.992-1.526 142.564-4.526 169.72h257.974c-4.526-24.156-6.788-80.728-6.788-169.72v-1197.088c0-69.414 2.262-116.936 6.788-142.564h-239.87v81.466c-54.31-58.836-121.462-88.254-201.4-88.254-122.146 0-218.714 58.046-289.654 174.246zM4028.008 703.244c-27.156-51.364-40.732-109.41-40.732-174.298 0-72.414 11.314-134.302 33.944-185.56 28.628-66.414 73.15-99.568 133.512-99.568 45.258 0 93.516 24.892 144.828 74.676v405.064c-51.31 48.258-100.358 72.414-147.090 72.414-51.31 0.052-92.78-30.892-124.46-92.728zM5130-5.052c-144.828 0-253.448 50.522-325.862 151.616-61.888 88.938-92.78 209.662-92.78 362.068 0 340.912 139.512 511.422 418.642 511.422 276.076 0 414.116-170.508 414.116-511.422 0-150.88-30.944-270.814-92.78-359.806-70.94-102.622-178.034-153.878-321.336-153.878zM5127.736 798.286c-69.414 0-115.41-33.208-138.038-99.622-13.578-37.732-20.366-101.094-20.366-190.034 0-89.044 6.788-152.406 20.366-190.086 22.63-66.414 68.624-99.568 138.038-99.568 69.362 0 115.41 32.418 138.038 97.306 13.578 37.68 20.366 101.884 20.366 192.348 0 88.938-6.788 152.352-20.366 190.034-22.63 66.414-68.678 99.622-138.038 99.622zM6096.216-5.052c-131.25 0-236.87 49.732-316.81 149.354-76.94 95.042-115.41 213.452-115.41 355.28 0 141.774 36.944 262.5 110.884 362.068 79.94 107.094 186.296 160.668 319.072 160.668 75.414 0 153.090-21.892 233.082-65.624v-239.87c-60.362 54.31-122.988 81.466-187.822 81.466-69.414 0-124.46-30.208-165.194-90.518-34.734-52.836-52.048-116.988-52.048-192.348 0-73.94 18.104-137.302 54.31-190.086 40.732-58.836 95.042-88.254 162.93-88.254 72.414 0 144.828 30.154 217.24 90.518v-262.446c-88.99-46.838-175.772-70.204-260.236-70.204z" horiz-adv-x="6564" />
<glyph unicode="&#xf021;" d="M702.972 114.686c-373.302 0-677.002 303.656-677.002 677.002 0 373.252 303.702 676.954 677.002 676.954 373.252 0 676.954-303.702 676.954-676.954 0-373.35-303.702-677.002-676.954-677.002zM702.972 1371.1c-319.554 0-579.456-259.954-579.456-579.41s259.954-579.458 579.456-579.458c319.504 0 579.41 259.954 579.41 579.456s-259.954 579.41-579.41 579.41zM1097.014 280.97l122.772 122.772 511.61-511.61-122.77-122.772-511.61 511.61z" horiz-adv-x="1749" />
<glyph unicode="&#xf022;" d="M867.944-56.59c-89.762 0-185.232 21.062-283.678 62.696-98.982 41.756-186.778 98.744-260.954 169.348-62.696 58.948-115.638 135.146-157.454 226.69-46.694 104.098-70.428 210.516-70.428 315.978 0 206.112 85.718 386.168 254.888 535.292 160.248 141.392 340.424 213.784 535.532 215.152h7.85c239.004 0 424.416-64.538 551.174-191.834 109.746-111.114 165.362-252.39 165.362-419.836 0-146.984-40.51-276.004-120.276-383.37-83.872-112.066-184.162-166.554-306.64-166.554-132.65 0-162.212 59.902-172.862 104.99l-15.704 66.264-38.010-56.51c-51.692-77.15-123.666-114.686-219.97-114.686-80.718 0-145.556 30.098-198.078 91.962-53.894 63.41-80.064 134.612-80.064 217.77 1.664 133.362 42.768 251.796 122.298 351.784 78.874 99.222 170.302 147.458 279.454 147.458 94.462 0 155.906-31.348 187.79-95.828l33.728-68.23 37.832 128.84h138l-118.312-427.392c-19.394-66.264-28.852-112.958-28.852-142.344 0-60.078 33.728-95.888 90.298-95.888 90.654 0 162.27 48.302 212.952 143.594 42.412 75.602 64.124 166.496 64.124 269.64 0 177.378-57.938 315.622-172.204 410.796-97.612 82.028-225.44 123.726-379.864 123.726-203.85 0-376.292-67.336-512.69-200.222-129.854-127.176-195.702-278.206-195.702-448.866 0-192.788 73.582-360.174 218.662-497.698 134.552-128.186 288.318-193.262 456.954-193.262 111.294 0 209.44 17.904 291.826 53.12 64.956 27.72 139.846 74.594 222.886 139.548l42.948-55.794c-98.924-87.978-197.902-148.59-294.444-180.178-73.878-23.972-170.956-36.164-288.378-36.164zM893.162 1027.798c-75.306 0-140.976-50.502-195.166-149.958-45.922-86.55-69.182-175.002-69.182-263.274 0-173.928 79.292-210.452 145.794-210.452 81.552 0 147.522 56.39 196.178 167.684 40.152 88.332 60.616 184.398 60.616 285.166 0 148.648-86.61 170.836-138.242 170.836z" horiz-adv-x="1573" />
<glyph unicode="&#xf023;" d="M1928.84 671.448l-580.606 180.602 119.662 233.536-224.394-96.974-201.212 567.904 69.888 24.762 174.772-493.122 340.988 147.386-173.534-338.914 496.434-154.408zM1112.178-174.626l-69.888 24.762 201.212 567.854 224.342-96.974-119.61 233.536 580.606 180.602 21.996-70.828-496.434-154.408 173.584-338.816-341.038 147.338zM219.102 671.448l-21.996 70.776 496.434 154.408-173.584 338.914 341.088-147.386 174.72 493.122 69.888-24.762-201.212-567.904-224.394 96.974 119.61-233.536zM1035.764-174.626l-174.72 493.072-341.088-147.338 173.584 338.816-496.434 154.408 21.996 70.828 580.556-180.602-119.61-233.536 224.394 96.974 201.212-567.852zM1077.232 507.402c-110.912 0-201.164 90.252-201.164 201.212 0 110.912 90.252 201.164 201.164 201.164 110.962 0 201.212-90.252 201.212-201.164 0-110.912-90.252-201.212-201.212-201.212zM1077.232 835.688c-70.038 0-127.024-56.986-127.024-127.024 0-70.086 56.986-127.074 127.024-127.074s127.074 56.986 127.074 127.074c0 70.038-56.986 127.024-127.074 127.024z" horiz-adv-x="2148" />
<glyph unicode="&#xf024;" d="M1471.306-66.054l-543.83 396.126-543.776-394.542 207.84 635.726-544.624 391.9h673.034l207.576 638.898 207.576-638.898h673.090l-544.726-391.688 207.84-637.524zM927.582 460.758l342.066-249.164-130.632 400.566 341.166 245.36h-421.862l-130.792 402.52-130.792-402.52h-421.968l341.272-245.518-130.58-399.51 342.118 248.268z" horiz-adv-x="1855" />
<glyph unicode="&#xf025;" d="M140.382 983.972h1511.47l-755.734-772.82z" horiz-adv-x="1753" />
<glyph unicode="&#xf026;" d="M726.552 549.032h688.074v-255.444l542.488 433.508-542.488 433.398v-255.498h-688.074zM1282.56-467.304c-658.56 0-1194.344 535.786-1194.344 1194.344s535.786 1194.344 1194.344 1194.344c658.508 0 1194.286-535.786 1194.286-1194.344s-535.786-1194.344-1194.286-1194.344zM1282.56 1811.468c-597.994 0-1084.428-486.486-1084.428-1084.428s486.486-1084.428 1084.428-1084.428c597.942 0 1084.372 486.486 1084.372 1084.428s-486.432 1084.428-1084.372 1084.428z" horiz-adv-x="2611" />
<glyph unicode="&#xf027;" d="M575.18 176.8c-10.214 14.788-23.31 21.996-35.096 30.77-8.022 5.016-16.042 7.708-24.064 9.526-0.314-4.574-1.064-9.086-1.944-13.596 0.438-1.314 0.63-2.634 1.004-3.948 17.298-6.142 32.334-16.356 42.738-33.462 9.652-19.992 5.14-51.072 4.7-79.334-0.188-27.258-8.522-52.388-19.928-77.268-11.282-24.69-26.506-48.002-43.492-69.308-8.522-10.528-17.922-20.742-27.258-28.638-7.52-6.892-10.34-6.518-20.994-2.818-41.108 19.612-73.944 72.314-94.748 119.942-11.844 26.444-17.482 48.946-20.804 76.264-1.88 19.49-2.254 39.418-2.818 59.342 0.812 0.876 1.252 1.944 2.132 2.756 0.876 0.876 2.006 1.504 2.946 2.318-0.062 2.818 0.254 5.64 0.438 8.458-1.944-1.756-4.010-3.386-5.826-5.326-0.122 5.198-0.69 10.214-0.754 15.478-0.314 112.296 11.22 226.6 32.212 337.082 5.514 27.074 11.718 55.836 19.362 80.088 2.884 11.97 9.652 27.074 13.536 39.354 5.702 15.478 10.214 30.644 13.346 45.244 13.346 59.096 20.49 116.622 25.316 174.65 9.526 115.744 13.348 231.11 15.98 346.354 0.062 29.766 2.38 54.646 1.252 88.356-1.944 31.208-6.828 61.664-17.606 92.434-5.702 15.354-12.658 30.898-24.252 45.622-11.028 14.538-29.076 28.7-50.57 33.026-10.468 2.194-21.308 2.442-30.892 0.75-10.092-1.316-20.554-5.076-25.882-7.33-19.49-8.148-32.46-19.364-44.302-32.086-43.928-52.012-58.404-112.8-66.114-172.33-3.198-30.080-3.822-60.41 0.188-90.99 4.7-30.080 10.716-62.602 37.284-89.862l3.574-3.698 5.012-0.876c38.29-6.58 77.704-6.33 115.242 5.762 11.97 4.072 23.498 9.96 34.592 17.048-3.698-75.766-8.148-151.4-15.414-226.412-6.016-56.334-10.904-113.426-22.622-166.628-2.63-13.596-6.266-25.944-10.34-37.538-4.7-15.102-9.838-26.318-13.912-42.3-9.148-30.77-14.412-58.404-19.992-87.734-20.18-115.62-30.206-231.364-28.2-348.988 0.314-29.39 3.51-59.032 7.52-88.924 4.512-29.642 14.978-62.854 28.136-88.234 13.474-27.698 29.076-53.454 48.438-77.578 19.992-23.374 41.234-46.686 75.386-59.97 8.458-3.198 18.986-5.016 30.394-3.57 12.786 1.818 20.49 8.458 28.012 14.85 12.154 11.214 21.684 22.81 30.83 34.904 17.86 24.314 33.278 50.196 44.806 78.27 11.214 27.762 18.802 59.282 17.048 89.736-2.442 28.45 3.26 58.092-13.6 90.366zM388.246 1128.95c-11.53-9.652-26.82-16.104-42.738-20.116-30.080-7.772-62.666-7.020-93.374-0.938-11.97 15.414-18.11 40.42-20.116 64.608-2.318 26.57-0.564 54.078 3.446 81.030 8.458 53.078 27.134 108.41 60.222 143.192 7.834 8.084 18.174 14.916 25.44 17.482 8.084 2.818 11.342 3.762 15.542 4.198 4.574 0.812 8.396 0.376 11.906-0.376 13.22-2.132 26.882-20.932 34.78-44.68 7.896-23.626 12.032-50.508 13.16-76.766 0.69-23.75-2.068-56.27-2.568-83.97-1-27.070-2.506-53.956-3.698-80.964-0.812-0.812-1.128-1.944-2.006-2.694zM1472.492 102.172c-37.724 86.102 50.254 420.488 76.14 498.194 43.116 129.53 87.858 332.128 84.162 512.418-3.57 169.762-75.39 245.212-102.46 273.602-1.504 1.628-3.010 3.134-4.26 4.574-24.44 2.38-105.154-3.884-176.904-9.586-131.224-10.404-294.53-23.314-423.998-16.292-234.12 12.782-590.062 55.458-593.636 55.896l7.52 62.228c3.57-0.438 357.51-42.93 589.498-55.584 125.332-6.642 286.322 5.954 415.602 16.23 180.226 14.286 207.362 14.916 224.408-6.518 1.568-1.944 4.010-4.452 7.144-7.708 31.644-33.214 115.684-121.384 119.69-315.522 3.884-188.248-42.554-398.994-87.356-533.538-40.42-121.258-100.83-401.564-78.206-453.262l-57.342-25.128zM1677.412 154.244c0 0-21.746-4.952-59.846-13.66-18.802-3.57-41.674-7.834-67.868-12.786-27.262-4.952-54.082-11.278-87.986-12.908-62.54-2.756-142.44-0.69-224.97 3.132-83.346 3.51-171.58 10.716-259.748 22.124-44.118 5.954-88.172 11.91-131.598 17.734-42.738 6.954-86.604 13.032-124.452 23.374-41.422 11.214-80.462 19.804-119.442 26.444-30.080 5.326-57.966 9.652-85.162 13.16-0.188-5.578-1.442-11.028-2.506-16.48 0.938-2.818 1.504-5.828 2.194-8.772 25.506-4.136 52.138-9.086 79.9-14.854 36.534-7.268 76.264-17.422 115.368-29.202 42.614-13.096 84.6-19.928 128.276-28.576 43.554-7.332 87.734-14.726 131.974-22.12 88.61-14.35 178.284-24.566 262.134-30.83 84.534-6.518 160.988-11.342 232.364-10.464 33.212 0.438 66.74 6.518 93.122 10.528 27.446 4.26 51.386 8.022 71.064 11.092 38.35 7.458 60.286 11.718 60.286 11.718l-13.096 61.352zM1452.44-155.2c-155.1 0-331.624 8.27-363.65 11.718-83.594 8.834-611.618 1.188-616.946 1.128l-0.938 62.666c21.87 0.376 537.236 7.96 624.462-1.442 102.962-11.028 524.512-18.424 569.004-0.122 37.412 19.992 66.114 59.846 66.114 92.43 0 22.998-11.718 58.28-30.582 75.136-8.584 7.58-14.85 7.772-18.424 7.458l-6.954 62.292c24.064 2.568 47.316-5.262 67.114-22.998 33.842-30.268 51.514-84.222 51.514-121.888 0-55.774-41.046-116.622-99.95-148.018-25.944-13.976-127.652-18.362-240.762-18.362zM610.27 1124.686h814.654v-62.666h-814.658v62.666zM610.27 811.356h814.654v-62.666h-814.658v62.666zM610.27 498.028h814.654v-62.666h-814.658v62.666z" horiz-adv-x="1902" />
<glyph unicode="&#xf028;" d="M940.698 1001.912c-27.404 0-50.768 9.1-70.15 27.24s-29.016 39.676-29.016 64.44c0 25.572 9.692 47.482 29.016 65.626s42.746 27.24 70.15 27.24c26.38 0 49.312-9.1 68.642-27.24s29.016-40.054 29.016-65.626c0-24.764-9.692-46.246-29.016-64.39s-42.262-27.294-68.642-27.294zM859.946 355.618c1.884 14.59 2.854 39.462 2.854 74.508v340.778c0 34.346-0.968 58.088-2.854 71.226h160.052c-1.884-13.89-2.854-36.878-2.854-69.070v-336.362c0-37.256 0.97-64.278 2.854-81.076h-160.052zM949.636-24.352c-436.874 0-792.352 355.476-792.352 792.352s355.476 792.352 792.352 792.352 792.352-355.476 792.352-792.352c0.054-436.874-355.422-792.352-792.352-792.352zM949.636 1452.682c-377.496 0-684.682-307.186-684.682-684.682s307.186-684.682 684.682-684.682c377.55 0 684.682 307.132 684.682 684.682s-307.132 684.682-684.682 684.682z" horiz-adv-x="1843" />
<glyph unicode="&#xf02a;" d="M64.286 1215.758c0 35.388 12.718 65.714 38.096 91.146s55.232 38.038 89.498 38.038c35.388 0 65.18-12.426 89.498-37.272 24.318-24.846 36.444-55.466 36.444-91.914 0-35.39-12.426-65.714-37.272-91.146s-54.466-38.152-88.674-38.152c-35.39 0-65.416 12.718-90.268 38.096-24.906 25.434-37.33 55.822-37.33 91.208zM64.286 665.628c0 35.388 12.426 65.714 37.33 91.088 24.848 25.494 54.936 38.096 90.268 38.096s65.18-12.426 89.498-37.272c24.318-24.846 36.444-55.468 36.444-91.97 0-35.388-12.426-65.714-37.272-91.146s-54.466-38.096-88.674-38.096c-34.27 0-64.062 13.016-89.498 38.92-25.378 26.024-38.094 56.114-38.094 90.382zM64.286 115.442c0 35.388 12.718 65.768 38.096 91.146 25.434 25.434 55.232 38.094 89.498 38.094 35.388 0 65.18-12.426 89.498-37.272 24.318-24.906 36.444-55.528 36.444-91.97 0-35.328-12.426-65.652-37.272-91.146-24.848-25.378-54.466-38.038-88.674-38.038-35.39 0-65.416 12.718-90.268 38.038-24.906 25.494-37.33 55.88-37.33 91.146z" horiz-adv-x="382" />
<glyph unicode="&#xf02c;" d="M337.144-22.456c-20.83 0-41.148 10.702-52.368 30.060l-276.506 473.86c-11.026 18.846-11.026 42.172 0 61.018l276.506 473.856c16.792 29.036 54.034 38.714 82.81 21.792 28.906-16.856 38.714-53.966 21.792-82.81l-258.628-443.348 258.628-443.348c16.922-28.842 7.114-65.954-21.792-82.81-9.548-5.646-20.058-8.272-30.442-8.272zM1437.192 1104.842c0-79.374-64.346-143.72-143.72-143.72s-143.72 64.346-143.72 143.72c0 79.374 64.346 143.72 143.72 143.72 79.374 0 143.72-64.346 143.72-143.72zM1437.192 512c0-79.374-64.346-143.72-143.72-143.72s-143.72 64.346-143.72 143.72c0 79.374 64.346 143.72 143.72 143.72 79.374 0 143.72-64.346 143.72-143.72zM1437.192-80.842c0-79.374-64.346-143.72-143.72-143.72s-143.72 64.346-143.72 143.72c0 79.374 64.346 143.72 143.72 143.72 79.374 0 143.72-64.346 143.72-143.72z" horiz-adv-x="1438" />
<glyph unicode="&#xf02d;" d="M51.818-169.654v1491.308l762.514-745.654z" horiz-adv-x="920" />
<glyph unicode="&#xf02e;" d="M1437.192 1104.842c0-79.374-64.346-143.72-143.72-143.72s-143.72 64.346-143.72 143.72c0 79.374 64.346 143.72 143.72 143.72 79.374 0 143.72-64.346 143.72-143.72zM1437.192 512c0-79.374-64.346-143.72-143.72-143.72s-143.72 64.346-143.72 143.72c0 79.374 64.346 143.72 143.72 143.72 79.374 0 143.72-64.346 143.72-143.72zM1437.192-80.842c0-79.374-64.346-143.72-143.72-143.72s-143.72 64.346-143.72 143.72c0 79.374 64.346 143.72 143.72 143.72 79.374 0 143.72-64.346 143.72-143.72z" horiz-adv-x="1438" />
<glyph unicode="&#xf02f;" d="M1579.068 1408c0 0-401.912 0-535.88 0-240.244 0-466.34-182.012-466.34-392.844 0-215.452 163.764-389.332 408.176-389.332 16.996 0 33.512 0.34 49.68 1.504-15.856-30.372-27.2-64.576-27.2-100.084 0-59.876 32.208-108.42 72.936-148.048-30.772 0-60.484-0.896-92.904-0.896-297.564 0.004-526.6-189.52-526.6-386.044 0-193.556 251.084-314.624 548.668-314.624 339.248 0 526.612 192.488 526.612 386.056 0 155.204-45.792 248.144-187.372 348.268-48.432 34.284-141.064 117.672-141.064 166.688 0 57.44 16.392 85.736 102.856 153.292 88.624 69.248 151.348 166.604 151.348 279.832 0 134.812-60.044 266.196-172.748 309.544h169.912l119.92 86.688zM1391.896 97.084c4.252-17.944 6.568-36.416 6.568-55.256 0-156.4-100.78-278.62-389.948-278.62-205.684 0-354.232 130.208-354.232 286.6 0 153.284 184.252 280.888 389.928 278.664 48-0.508 92.736-8.232 133.336-21.38 111.656-77.656 191.752-121.52 214.348-210.008zM1062.572 680.448c-138.076 4.128-269.272 154.452-293.104 335.72-23.832 181.332 68.74 320.084 206.776 315.98 138.016-4.148 269.272-149.628 293.116-330.916 23.812-181.32-68.78-324.916-206.788-320.784z" />
<glyph unicode="&#xf030;" d="M2048 942.364c-75.352-33.416-156.328-56.004-241.32-66.16 86.744 52 153.372 134.34 184.744 232.46-81.192-48.156-171.112-83.12-266.82-101.96-76.64 81.66-185.844 132.68-306.692 132.68-232.044 0-420.176-188.116-420.176-420.156 0-32.932 3.716-65 10.88-95.756-349.2 17.528-658.804 184.8-866.036 439.012-36.168-62.056-56.892-134.232-56.892-211.236 0-145.776 74.176-274.384 186.92-349.732-68.876 2.184-133.664 21.084-190.308 52.556-0.040-1.752-0.040-3.512-0.040-5.284 0-203.576 144.836-373.392 337.044-412-35.252-9.6-72.376-14.744-110.696-14.744-27.076 0-53.396 2.64-79.056 7.544 53.472-166.92 208.64-288.412 392.504-291.792-143.8-112.7-324.972-179.868-521.832-179.868-33.916 0-67.36 1.988-100.232 5.88 185.944-119.22 406.804-188.788 644.084-188.788 772.844 0 1195.472 640.248 1195.472 1195.488 0 18.216-0.412 36.336-1.22 54.36 82.112 59.24 153.344 133.24 209.672 217.496z" />
<glyph unicode="&#xf031;" d="M1151.74-512h-383.74v1024h-256v352.9l256 0.116-0.416 207.904c0 287.904 78.068 463.080 417.196 463.080h282.352v-352.968h-176.46c-132.064 0-138.412-49.312-138.412-141.368l-0.524-176.648h317.38l-37.408-352.9-279.708-0.116-0.26-1024z" />
<glyph unicode="&#xf032;" d="M1704 1536h-1360c-189.2 0-344-154.8-344-344v-1360c0-189.2 154.8-344 344-344h1360c189.2 0 344 154.8 344 344v1360c0 189.2-154.8 344-344 344zM768-128h-256v896h256v-896zM640 896c-70.692 0-128 57.308-128 128s57.308 128 128 128 128-57.308 128-128-57.308-128-128-128zM1664-128h-256v512c0 70.692-57.308 128-128 128s-128-57.308-128-128v-512h-256v896h256v-158.944c52.796 72.528 133.504 158.944 224 158.944 159.060 0 288-143.268 288-320v-576z" />
<glyph unicode="&#xf033;" d="M369.826-215.016c-35.242 0-68.818 14.15-94.484 39.814l-70.488 70.488c-25.664 25.4-39.904 59.062-39.904 94.57 0 35.42 14.238 69.082 40.166 94.746l491.308 491.396-491.574 491.658c-25.664 25.4-39.904 59.062-39.904 94.484 0 35.506 14.238 69.172 40.166 94.834l70.222 70.226c25.664 25.664 59.238 39.814 94.486 39.814 35.596 0 68.204-13.624 94.306-39.552l656.896-656.896c26.19-26.368 39.814-58.972 39.814-94.57s-13.624-68.204-39.552-94.306l-656.896-656.896c-26.368-26.194-58.972-39.814-94.57-39.814z" horiz-adv-x="1450" />
<glyph unicode="&#xf034;" d="M1792 1536v-576l-207.39 207.39-318-318-161.22 161.22 318 318-207.39 207.39zM624.61 1328.61l318-318-161.22-161.22-318 318-207.39-207.39v576h576zM1584.61 368.61l207.39 207.39v-576h-576l207.39 207.39-318 318 161.22 161.22zM942.61 525.39l-318-318 207.39-207.39h-576v576l207.39-207.39 318 318z" />
<glyph unicode="&#xf035;" d="M768 362.668c0 0 407.888 244.72 637.532 148.052 47.604 72.536 94.496 150.672 140.404 230.444-224.652 55.040-521.936 5.504-521.936 5.504s380.424 228.244 613.332 156.8c46.7 84.216 92.108 167.284 135.912 244.608-185.552 12.536-365.244-17.408-365.244-17.408s238.296 142.976 453.156 167.196c67.596 109.72 130.34 195.76 186.844 238.136-1122 0-1792-1280-2048-2048h128l384 640c0 0 128-128 512 0 90.948 30.316 181.896 114.504 271.144 227.868-225.232 57.108-527.144 6.8-527.144 6.8z" />
<glyph unicode="&#xf036;" d="M1517.568 56.524c-252.416 91.956-333.108 169.574-333.108 335.77 0 99.738 77.108 67.174 110.9 249.856 14.028 75.776 82.124 1.228 95.232 174.182 0 68.916-37.172 86.118-37.172 86.118s18.944 102.092 26.316 180.532c9.012 97.894-56.524 350.618-406.938 350.618-350.31 0-416.052-252.724-406.836-350.618 7.372-78.438 26.316-180.532 26.316-180.532s-37.274-17.1-37.274-86.118c13.004-172.954 81.1-98.406 95.13-174.182 33.894-182.682 111.002-150.118 111.002-249.856 0-166.196-80.692-243.814-333.108-335.77-253.338-92.16-417.792-186.266-417.792-250.47 0-64.102 0-215.552 0-215.552h1925.12c0 0 0 151.45 0 215.552s-164.556 158.208-417.792 250.47z" />
<glyph unicode="&#xf037;" d="M896 1514.894c-455.24 0-824.146-369.098-824.146-824.146 0-455.24 369-824.146 824.146-824.146 455.146 0 824.146 369 824.146 824.146 0 455.146-369 824.146-824.146 824.146zM1065.636 690.752l300.322-300.322-169.636-169.636-300.322 300.322-300.322-300.322-169.538 169.636 300.226 300.322-300.226 300.226 169.538 169.636 300.322-300.226 300.322 300.226 169.636-169.542-300.322-300.322z" horiz-adv-x="1792" />
<glyph unicode="&#xf038;" d="M1611.934-139.716h-1473.776v1724.632h1005.114l468.658-401.618v-1323.012zM232.23-45.642h1285.634v1185.672l-409.334 350.822h-876.302v-1536.492zM1078.866 1114.564v423.318h94.072v-329.25h391.962v-94.072zM436.048 910.744h815.282v-62.714h-815.28v62.714zM436.048 722.6h815.282v-62.714h-815.28v62.714zM436.048 534.462h815.282v-62.714h-815.28v62.714zM436.048 346.318h627.138v-62.714h-627.138v62.714z" horiz-adv-x="1750" />
<glyph unicode="&#xf039;" d="M1585.686 1286.752c0-112.084 166.126-1433.216-287.188-1433.216-321.724 0-357.036 32.39-377.52 49.164-20.388 16.584-48.19 92.966-38.046 254.9 11.216 177.25 273.924 146.228 273.924 146.228l-6.342-137.16c0 0-25.362-2.044-75.992-2.044s-81.36-125.254 33.362-133.548l167.3 6.634c73.942 10.342 63.898 155.788 52.87 268.168-8.488 85.162-168.278 79.6-287.968 109.452-119.694 29.656-143.010 156.472-164.080 156.472s4.198-224.466-71.798-224.466-436.832 40.776-495.85 98.916c-101.648 100.188-175.788 534.382-175.788 585.208 0 50.92 49.070 61.264 111.99 57.166h225.050c109.158 0 152.764 42.238 152.764 141.35 0 55.412-1.462 143.202-1.462 219.49s15.118 157.156 78.43 157.838 151.496 12.002 231.682-25.362c80.284-37.458 88.772-145.546 88.772-145.546l396.932-24.972c0 0 168.958-12.488 168.958-124.672v-0.006zM1400.438 700.184c17.85 19.020-41.068 214.416-156.96 214.416s-145.742-172.86-130.23-194.32c15.606-21.364 82.040 11.216 143.592 11.216 61.458 0 125.84-50.236 143.592-31.314l0.002-0.002zM406.688 1256.222c-46.338 0-282.606 0-282.606 0l342.012 335.476c0 0-5.758-268.948-5.758-291.092 0-22.242-7.122-44.386-53.654-44.386z" horiz-adv-x="1740" />
<glyph unicode="&#xf03a;" d="M1980.416 149.094l-326.042 219.34h-201.012l348.16-267.060h-363.008c-10.444 0-19.764-5.324-24.576-13.62l-83.558-228.864h-612.762l-83.66 228.864c-4.608 8.294-14.132 13.62-24.576 13.62h-362.906l348.262 267.060h-201.114l-325.94-219.34c-48.538-28.98-77.516-95.846-64.512-148.378l57.446-314.778c13.004-52.634 70.758-95.744 128.102-95.744h1670.452c57.548 0 115.2 43.11 128.204 95.744l57.446 314.778c13.21 52.634-15.872 119.398-64.41 148.378zM1556.582 806.708h-338.022v524.288h-389.12v-524.288h-337.92l532.48-499.712 532.582 499.712z" />
<glyph unicode="&#xf03b;" d="M1024 1454.080c-520.294 0-942.080-421.888-942.080-942.080 0-520.294 421.786-942.080 942.080-942.080s942.080 421.786 942.080 942.080c0 520.294-421.786 942.080-942.080 942.080zM1024-225.28c-407.244 0-737.28 330.138-737.28 737.28s330.036 737.28 737.28 737.28 737.28-330.138 737.28-737.28-330.036-737.28-737.28-737.28zM1095.68 1044.48h-143.36v-562.176l348.672-348.672 101.376 101.376-306.688 306.688z" />
<glyph unicode="&#xf03c;" d="M2048 677.488c0 401.852-117.584 727.876-262.964 730.452 0.584 0.012 1.156 0.060 1.744 0.060h-165.884c0 0-389.6-292.672-950.46-407.508-17.12-90.584-28.060-198.548-28.060-323.004 0-124.456 10.932-232.416 28.060-323 560.856-114.836 950.46-407.512 950.46-407.512h165.884c-0.584 0-1.156 0.048-1.744 0.064 145.392 2.576 262.964 328.596 262.964 730.448zM1729.648 57.496c-18.764 0-39.064 19.484-49.492 31.096-25.26 28.128-49.584 71.92-70.376 126.656-46.512 122.464-72.132 286.62-72.132 462.248 0 175.62 25.62 339.78 72.132 462.244 20.788 54.736 45.124 98.532 70.376 126.656 10.428 11.624 30.728 31.104 49.492 31.104 18.76 0 39.072-19.488 49.488-31.104 25.268-28.128 49.592-71.916 70.376-126.656 46.516-122.46 72.136-286.624 72.136-462.244 0-175.608-25.62-339.776-72.136-462.248-20.78-54.736-45.124-98.528-70.376-126.656-10.416-11.612-30.72-31.096-49.488-31.096zM503.624 677.488c0 103.9 7.62 204.86 22.104 298.188-94.744-13.108-177.884-20.648-280.68-20.648-134.116 0-134.116 0-134.116 0l-110.932-189.372v-176.34l110.92-189.372c0 0 0 0 134.12 0 102.796 0 185.936-7.548 280.68-20.648-14.472 93.328-22.096 194.292-22.096 298.192zM736.3 251.656l-255.996 49.020 163.684-643.088c8.472-33.268 41.488-50.076 73.372-37.308l237.112 94.904c31.888 12.752 44.656 47.928 28.392 78.168l-246.564 458.304zM1729.648 438.54c-7.236 0-15.056 7.508-19.076 11.984-9.74 10.84-19.112 27.72-27.124 48.816-17.924 47.2-27.8 110.468-27.8 178.156 0 67.688 9.876 130.956 27.8 178.156 8.012 21.096 17.392 37.976 27.124 48.816 4.020 4.48 11.84 11.988 19.076 11.988 7.232 0 15.060-7.512 19.076-11.988 9.74-10.84 19.112-27.716 27.12-48.816 17.928-47.196 27.804-110.468 27.804-178.156 0-67.684-9.876-130.956-27.804-178.156-8.008-21.096-17.392-37.976-27.12-48.816-4.016-4.476-11.84-11.984-19.076-11.984z" />
<glyph unicode="&#xf03d;" d="M2619.042 572.154l-901.964 720.658v-416.166h-822.464v416.166l-902.056-720.658 902.056-720.842v385.644h822.464v-385.644z" horiz-adv-x="2640" />
<glyph unicode="&#xf03e;" d="M1062.624 305.234l-87.926-411.874h-217.58l83.3 411.874h-381.79l-85.616-411.874h-224.448l88 411.874h-168.916v212.878h212.806l69.418 330.886h-282.222v212.878h326.258l87.926 411.874h222.134l-85.686-411.874h384.104l88 411.874h217.502l-87.926-411.874h173.54v-212.878h-215.262l-69.418-330.886h284.678v-212.878h-330.886zM572.076 848.998l-69.418-330.886h384.104l69.49 330.886h-384.178z" horiz-adv-x="1430" />
<glyph unicode="&#xf03f;" d="M1638.4 614.4h-1228.8c-56.524 0-102.4-45.876-102.4-102.4s45.876-102.4 102.4-102.4h1228.8c56.628 0 102.4 45.876 102.4 102.4s-45.772 102.4-102.4 102.4zM409.6 819.2h1228.8c56.628 0 102.4 45.876 102.4 102.4s-45.772 102.4-102.4 102.4h-1228.8c-56.524 0-102.4-45.876-102.4-102.4s45.876-102.4 102.4-102.4zM1638.4 204.8h-1228.8c-56.524 0-102.4-45.772-102.4-102.4s45.876-102.4 102.4-102.4h1228.8c56.628 0 102.4 45.772 102.4 102.4s-45.772 102.4-102.4 102.4z" />
<glyph unicode="&#xf040;" d="M1699.84 510.464l-391.988 0.102 0.102 718.438h-568.524v-718.54l-391.27 0.102 675.84-776.602z" />
<glyph unicode="&#xf041;" d="M832 1501.936c-437.83 0-792.774-354.944-792.774-792.774s354.944-792.774 792.774-792.774 792.774 354.944 792.774 792.774-354.944 792.774-792.774 792.774zM1378.74 599.812h-1093.482v218.696h1093.482v-218.696z" horiz-adv-x="1664" />
<glyph unicode="&#xf042;" d="M832 1502.968c-437.83 0-792.774-354.944-792.774-792.774s354.944-792.774 792.774-792.774 792.774 354.944 792.774 792.774-354.944 792.774-792.774 792.774zM1378.74 600.844h-437.392v-437.392h-218.696v437.392h-437.392v218.696h437.392v437.392h218.696v-437.392h437.392v-218.696z" horiz-adv-x="1664" />
<glyph unicode="&#xf043;" d="M311.822-151.016c-25.218 0-48.486 9.864-67.19 28.57l-74.634 74.634c-18.612 18.428-28.476 41.69-28.476 67.19 0 25.404 9.864 48.67 28.756 67.374l553.246 553.246-553.43 553.43c-18.704 18.52-28.57 41.784-28.57 67.19 0 25.498 9.864 48.764 28.756 67.47l74.448 74.446c18.612 18.612 41.878 28.478 67.096 28.478s48.39-9.772 67.096-28.384l695.442-695.442c18.612-18.612 28.568-41.878 28.568-67.282s-9.864-48.58-28.568-67.282l-695.258-695.258c-18.892-18.612-42.062-28.386-67.282-28.386z" horiz-adv-x="1244" />
<glyph unicode="&#xf044;" d="M1875.29 1190.83l-154.986 155.324c-21.274 21.32-47.104 31.978-77.492 31.978-30.392 0-56.222-10.658-77.496-31.978l-747.588-750.354-335.044 336.918c-21.274 21.32-47.104 31.978-77.496 31.978s-56.222-10.658-77.496-31.978l-154.986-155.324c-21.27-21.32-31.906-47.206-31.906-77.662s10.636-56.342 31.91-77.662l567.526-568.76c21.274-21.32 47.104-31.978 77.496-31.978s56.222 10.658 77.496 31.978l980.066 982.196c21.274 21.32 31.91 47.206 31.91 77.662s-10.642 56.342-31.914 77.662z" />
<glyph unicode="&#xf045;" d="M1685.334 661.364c0 41.208-14.118 75.93-42.364 104.166l-745.348 745.186c-29.764 28.232-64.494 42.35-104.188 42.35-38.93 0-73.276-14.118-103.044-42.35l-85.87-85.85c-29.004-28.996-43.508-63.722-43.508-104.166s14.502-74.138 43.508-103.138l335.466-334.362h-806.028c-39.692 0-71.94-15.338-96.746-43.956s-37.21-64.174-37.21-104.618v-146.518c0-40.444 12.404-76.036 37.21-104.652s57.054-43.99 96.746-43.99h806.028l-335.462-335.476c-29.004-27.474-43.508-61.282-43.508-102.49s14.502-75.286 43.508-102.754l85.87-85.718c29.004-28.996 63.352-43.43 103.044-43.43 40.452 0 75.182 14.532 104.188 43.532l745.348 745.198c28.242 26.706 42.36 61.060 42.36 103.032z" horiz-adv-x="1754" />
<glyph unicode="&#xf046;" d="M729.6 220.446v1028.74c0 19.9-7.27 37.124-21.816 51.666-14.546 14.546-31.766 21.816-51.666 21.816-19.9 0-37.124-7.27-51.666-21.816l-514.372-514.368c-14.546-14.546-21.816-31.77-21.816-51.67s7.27-37.124 21.816-51.666l514.372-514.372c14.546-14.546 31.766-21.816 51.666-21.816s37.124 7.27 51.666 21.816c14.546 14.546 21.816 31.766 21.816 51.67z" horiz-adv-x="730" />
<glyph unicode="&#xf047;" d="M21.816 168.776c14.546-14.546 31.766-21.816 51.666-21.816s37.124 7.27 51.666 21.816l514.372 514.372c14.546 14.546 21.816 31.766 21.816 51.666 0 19.9-7.27 37.124-21.816 51.666l-514.368 514.372c-14.546 14.546-31.77 21.816-51.67 21.816s-37.124-7.27-51.666-21.816-21.816-31.766-21.816-51.666v-1028.74c0-19.904 7.27-37.124 21.816-51.67z" horiz-adv-x="730" />
<glyph unicode="&#xf048;" d="M1040.298 1304.942l116.732-116.732c14.498-14.498 21.742-31.662 21.742-51.498s-7.25-37.004-21.742-51.498l-351.342-351.348 351.342-351.342c14.498-14.498 21.742-31.662 21.742-51.498s-7.25-37.004-21.742-51.498l-116.732-116.732c-14.498-14.498-31.662-21.742-51.498-21.742s-37.004 7.25-51.498 21.742l-519.578 519.574c-14.498 14.498-21.742 31.662-21.742 51.498s7.25 37.004 21.742 51.498l519.578 519.578c14.498 14.498 31.662 21.742 51.498 21.742s37.004-7.244 51.498-21.742zM1757.866 733.866c0 159.458-39.292 306.522-117.88 441.182s-185.208 241.288-319.872 319.872-281.724 117.88-441.182 117.88-306.522-39.292-441.182-117.88-241.288-185.208-319.872-319.872-117.88-281.724-117.88-441.182 39.292-306.522 117.88-441.182 185.208-241.288 319.872-319.872 281.724-117.88 441.182-117.88 306.522 39.292 441.182 117.88 241.288 185.208 319.872 319.872 117.88 281.724 117.88 441.182z" horiz-adv-x="1758" />
<glyph unicode="&#xf049;" d="M72.534 642.996l560.358-364.476 391.108 325.632-564.932 348.48-386.534-309.636zM1419.806 208.824l-391.54 324.488v2.286l-2.134-1.144-2.134 1.144v-2.286l-390.968-324.488-167.966 109.688v-123.396l558.934-334.772v-1.144l2.134 1.144 2.134-1.144v1.144l558.934 334.772v123.396l-167.394-109.688zM72.534 1261.124l386.534-308.492 564.932 347.336-391.108 325.632-560.358-364.476zM1024 604.152l392.252-325.632 559.214 364.476-386.534 309.636-564.932-348.48zM1024 1299.968l564.932-347.34 386.534 308.498-559.214 364.476-392.252-325.632z" />
<glyph unicode="&#xf04a;" d="M1024 1408c565.54 0 1024-372.5 1024-832 0-459.504-458.46-832-1024-832-54.312 0-107.62 3.468-159.648 10.088-219.956-219.956-482.5-259.4-736.352-265.192v53.832c137.072 67.156 256 189.48 256 329.272 0 19.508-1.516 38.66-4.328 57.392-231.592 152.528-379.672 385.508-379.672 646.608 0 459.5 458.46 832 1024 832z" />
<glyph unicode="&#xf04b;" d="M1753.6 801.484l-209.51 577.126c-15.462 42.598-60.928 65.126-101.274 50.38l-1392.332-508.212c-40.448-14.644-60.826-61.132-45.364-103.732l220.876-608.46v326.144c0 147.148 117.556 266.752 262.246 266.752h367.924l438.784 308.020 253.952-308.020h204.698zM1969.972 616.756h-1481.728c-43.008 0-78.028-36.762-78.028-82.124v-964.71c0-45.26 34.918-82.124 78.028-82.124h1481.728c43.11 0 78.028 36.762 78.028 82.124v964.812c0 45.26-34.918 82.022-78.028 82.022zM1856.922-306.892h-1228.288v176.026l188.928 439.808 283.546-351.948 265.932 272.588 341.914 123.392 147.968-329.932v-329.932z" />
<glyph unicode="&#xf04c;" d="M1149.644 1351.68c-455.27 0-825.446-364.748-836.506-818.688h-251.7l376.73-419.942 376.628 419.942h-292.454c11.060 338.022 287.54 608.768 627.302 608.768 346.726 0 627.712-281.908 627.712-629.76s-280.986-629.76-627.712-629.76c-139.060 0-267.468 45.466-371.508 122.164l-143.974-154.010c142.132-111.514 321.024-178.074 515.482-178.074 462.234 0 837.018 375.91 837.018 839.68-0.102 463.77-374.886 839.68-837.018 839.68zM1075.2 962.56v-480.256l307.712-307.712 101.376 101.376-265.728 265.728v420.864h-143.36z" />
<glyph unicode="&#xf04d;" d="M640 554.666c0-23.466 19.2-42.666 42.666-42.666h170.666c23.466 0 42.666 19.2 42.666 42.666v170.666c0 23.466-19.2 42.666-42.666 42.666h-170.666c-23.466 0-42.666-19.2-42.666-42.666v-170.666zM1024 554.666c0-23.466 19.2-42.666 42.666-42.666h170.666c23.466 0 42.666 19.2 42.666 42.666v170.666c0 23.466-19.2 42.666-42.666 42.666h-170.666c-23.466 0-42.666-19.2-42.666-42.666v-170.666zM1408 554.666c0-23.466 19.2-42.666 42.666-42.666h170.666c23.466 0 42.666 19.2 42.666 42.666v170.666c0 23.466-19.2 42.666-42.666 42.666h-170.666c-23.466 0-42.666-19.2-42.666-42.666v-170.666zM256-213.334c0-23.466 19.2-42.666 42.666-42.666h170.666c23.466 0 42.666 19.2 42.666 42.666v170.666c0 23.466-19.2 42.666-42.666 42.666h-170.666c-23.466 0-42.666-19.2-42.666-42.666v-170.666zM640-213.334c0-23.466 19.2-42.666 42.666-42.666h170.666c23.466 0 42.666 19.2 42.666 42.666v170.666c0 23.466-19.2 42.666-42.666 42.666h-170.666c-23.466 0-42.666-19.2-42.666-42.666v-170.666zM1024-213.334c0-23.466 19.2-42.666 42.666-42.666h170.666c23.466 0 42.666 19.2 42.666 42.666v170.666c0 23.466-19.2 42.666-42.666 42.666h-170.666c-23.466 0-42.666-19.2-42.666-42.666v-170.666zM640 170.666c0-23.466 19.2-42.666 42.666-42.666h170.666c23.466 0 42.666 19.2 42.666 42.666v170.666c0 23.466-19.2 42.666-42.666 42.666h-170.666c-23.466 0-42.666-19.2-42.666-42.666v-170.666zM1024 170.666c0-23.466 19.2-42.666 42.666-42.666h170.666c23.466 0 42.666 19.2 42.666 42.666v170.666c0 23.466-19.2 42.666-42.666 42.666h-170.666c-23.466 0-42.666-19.2-42.666-42.666v-170.666zM1408 170.666c0-23.466 19.2-42.666 42.666-42.666h170.666c23.466 0 42.666 19.2 42.666 42.666v170.666c0 23.466-19.2 42.666-42.666 42.666h-170.666c-23.466 0-42.666-19.2-42.666-42.666v-170.666zM256 170.666c0-23.466 19.2-42.666 42.666-42.666h170.666c23.466 0 42.666 19.2 42.666 42.666v170.666c0 23.466-19.2 42.666-42.666 42.666h-170.666c-23.466 0-42.666-19.2-42.666-42.666v-170.666zM1920 1536v-2005.334c0-23.466-19.2-42.666-42.666-42.666h-1834.666c-23.466 0-42.666 19.2-42.666 42.666v2005.334zM1792 981.334c0 23.466-19.2 42.666-42.666 42.666h-1578.666c-23.466 0-42.666-19.2-42.666-42.666v-1322.666c0-23.466 19.2-42.666 42.666-42.666h1578.666c23.466 0 42.666 19.2 42.666 42.666v1322.666z" horiz-adv-x="1920" />
<glyph unicode="&#xf050;" d="M756.080 473.416h780.252v-289.664l615.162 491.584-615.162 491.456v-289.728h-780.252z" horiz-adv-x="2908" />
<glyph unicode="&#xf051;" d="M2029.324-109.32c-0.008 0.008-0.016 0.016-0.024 0.020l-621.288 621.3 621.288 621.3c0.008 0.008 0.016 0.012 0.024 0.020 6.688 6.692 11.524 14.508 14.624 22.832 8.492 22.752 3.648 49.364-14.648 67.66l-293.492 293.492c-18.296 18.292-44.9 23.132-67.656 14.64-8.32-3.1-16.14-7.936-22.836-14.62 0-0.008-0.008-0.012-0.016-0.020l-621.296-621.304-621.296 621.3c-0.008 0.008-0.012 0.012-0.020 0.020-6.692 6.684-14.508 11.52-22.828 14.62-22.76 8.496-49.364 3.652-67.66-14.64l-293.496-293.496c-18.296-18.296-23.136-44.904-14.644-67.656 3.104-8.32 7.94-16.144 14.624-22.832 0.008-0.004 0.012-0.012 0.020-0.020l621.3-621.296-621.3-621.304c-0.004-0.008-0.012-0.012-0.016-0.020-6.684-6.692-11.52-14.508-14.628-22.828-8.496-22.752-3.652-49.364 14.644-67.66l293.496-293.492c18.3-18.296 44.904-23.136 67.66-14.644 8.32 3.104 16.14 7.94 22.832 14.624 0.004 0.008 0.012 0.012 0.020 0.020l621.296 621.3 621.296-621.3c0.008-0.004 0.016-0.012 0.024-0.016 6.696-6.688 14.508-11.524 22.828-14.628 22.756-8.492 49.368-3.652 67.656 14.644l293.492 293.496c18.296 18.296 23.14 44.908 14.648 67.66-3.104 8.32-7.94 16.136-14.628 22.828z" />
<glyph unicode="&#xf052;" d="M163.226 994.714c49.972-26.932 742.298-398.746 768.102-412.57 25.702-13.824 59.084-20.48 92.672-20.48 33.69 0 67.072 6.656 92.774 20.582 25.804 13.824 718.028 385.638 768 412.57 50.074 26.828 97.382 111.104 5.53 111.104h-1732.506c-91.852 0-44.646-84.276 5.428-111.206zM1905.972 789.914c-56.832-29.696-754.38-394.342-789.196-412.57s-59.084-20.582-92.774-20.582c-33.588 0-57.856 2.356-92.672 20.582s-732.468 382.976-789.196 412.57c-40.038 20.89-39.732-3.584-39.732-22.426 0-18.842 0-751.104 0-751.104 0-43.008 57.242-98.304 101.58-98.304h1640.14c44.442 0 101.478 55.296 101.478 98.202 0 0 0 732.262 0 751.104 0 18.944 0.41 43.418-39.628 22.528z" />
</font>
</defs>
</svg>
